<!--
  -  Copyright (c) 2023. felord.cn
  -    Licensed under the Apache License, Version 2.0 (the "License");
  -    you may not use this file except in compliance with the License.
  -  You may obtain a copy of the License at
  -       https://www.apache.org/licenses/LICENSE-2.0
  -  Website:
  -       https://felord.cn
  -  Unless required by applicable law or agreed to in writing, software
  -  distributed under the License is distributed on an "AS IS" BASIS,
  -  WITHOUT WARRANTIES OR CONDITIONS OF ANY KIND, either express or implied.
  -  See the License for the specific language governing permissions and
  -  limitations under the License.
  -->

<svg data-v-decfdd8a="" version="1.1" id="图层_1"
     xmlns="http://www.w3.org/2000/svg" x="0px"
     y="0px" width="265px" height="85px" viewBox="40 80 265 85" enable-background="new 0 0 800 800"
     xml:space="preserve">
 <g data-v-decfdd8a="" fill="#0082ef" class="endsvg" transform="translate(43.73999786376953,96.56400108337402)">
        <g class="tp-name" transform="translate(0,0)">
            <g>
                <rect data-gra="graph-name-bg" stroke-width="2" class="i-icon-bg" x="0" y="0" width="252.52000427246094"
                      height="39.93000030517578" fill-opacity="0"></rect> <!----> <!---->
            </g>
            <g transform="translate(0,0)">
                <g data-gra="path-name-bg">
                    <g>
                        <rect data-gra="graph-name-bg" stroke-width="2" class="i-icon-bg" x="0" y="0"
                              width="163.0800018310547" height="39.93000030517578"
                              fill-opacity="0"></rect> <!----> <!---->
                    </g>
                    <g transform="translate(5,5)">
                        <g data-gra="path-name">
                            <g transform="scale(1)">
                                <path d="M12.69 1.42L8.16 1.42Q7.18 1.42 6.52 0.81Q5.87 0.20 5.72-1.10L5.72-1.10L2.84-28.19L7.77-28.19L10.25-2.92L11.31-2.92L19.75-25.78L25.98-25.78L28.78-2.88L29.84-2.88L38.56-28.15L43.64-28.15L34.02-0.71Q33.27 1.38 31.38 1.46L31.38 1.46L26.73 1.46Q25.74 1.46 25.09 0.85Q24.44 0.24 24.29-1.06L24.29-1.06L22.24-19.75L15.45-0.75Q14.67 1.42 12.69 1.42L12.69 1.42ZM43.56 1.42L47.19-28.19L66.27-28.19L65.76-23.93L51.33-23.93L50.31-15.69L62.92-15.69L62.41-11.47L49.79-11.47L48.73-2.88L63.51-2.88L63.00 1.42L43.56 1.42ZM81.88-28.19L83.62-28.19Q85.27-28.19 88.35-28.11L88.35-28.11L90.79-28.07L90.20-23.69L87.92-23.77Q83.97-23.85 82.99-23.85L82.99-23.85L81.25-23.85Q77.67-23.85 75.91-22.04Q74.16-20.22 73.60-16.16L73.60-16.16L72.90-10.45Q72.74-8.87 72.74-8.24L72.74-8.24Q72.74-5.36 74.10-4.06Q75.46-2.76 78.57-2.76L78.57-2.76L80.46-2.76Q82.55-2.76 87.25-3.04L87.25-3.04L88.23-3.08L87.92 1.26Q84.05 1.58 80.07 1.58L80.07 1.58L78.18 1.58Q72.97 1.54 70.53-0.67Q68.09-2.88 68.09-7.61L68.09-7.61Q68.09-8.83 68.28-10.68L68.28-10.68L68.87-15.93Q69.70-22.35 72.80-25.25Q75.89-28.15 81.88-28.19L81.88-28.19ZM107.00-28.35L109.91-28.35Q115.12-28.31 117.56-26.08Q120.01-23.85 120.01-19.08L120.01-19.08Q120.01-17.86 119.81-16.09L119.81-16.09L119.22-10.68Q118.35-4.26 115.28-1.36Q112.20 1.54 106.21 1.58L106.21 1.58L103.29 1.58Q98.09 1.54 95.64-0.67Q93.20-2.88 93.20-7.61L93.20-7.61Q93.20-8.83 93.40-10.68L93.40-10.68L93.99-16.09Q94.81-22.51 97.91-25.41Q101.00-28.31 107.00-28.35L107.00-28.35ZM98.72-16.32L98.01-10.45Q97.85-8.87 97.85-8.24L97.85-8.24Q97.85-5.36 99.21-4.08Q100.57-2.80 103.69-2.76L103.69-2.76L106.84-2.76Q110.43-2.80 112.18-4.59Q113.94-6.39 114.49-10.45L114.49-10.45L115.20-16.32Q115.35-17.90 115.35-18.53L115.35-18.53Q115.35-21.41 113.99-22.69Q112.63-23.97 109.52-24.01L109.52-24.01L106.37-24.01Q102.78-23.97 101.02-22.18Q99.27-20.38 98.72-16.32L98.72-16.32ZM126.51-28.19L131.64-28.19L138.14-3.98L138.30-3.98L150.80-28.19L155.92-28.19L152.30 1.42L148.04 1.42L150.60-19.48L140.39 0.20Q139.76 1.42 138.42 1.42L138.42 1.42L136.80 1.42Q135.42 1.42 135.15 0.20L135.15 0.20L129.71-19.48L127.14 1.42L122.88 1.42L126.51-28.19Z"
                                      transform="translate(-2.83853273911553, 28.345903325334252)"></path>
                            </g>
                        </g>
                    </g>
                </g>
                <g data-gra="path-name-1-bg" transform="translate(163.0800018310547,0)"
                   mask="url(#3b59149d-1a9b-4058-a75e-81f75abc5b77)">
                    <g>
                        <rect data-gra="graph-name-bg" stroke-width="2" class="i-icon-bg" x="0" y="0"
                              width="89.44000244140625" height="39.93000030517578"
                              fill="#ac2929"></rect> <!----> <!---->
                    </g>
                    <g transform="translate(5,5)">
                        <g data-gra="path-name-1" fill="#ac2929">
                            <g transform="scale(1)">
                                <path d="M9.23 1.58L8.71 1.58Q3.55 1.58 0.20 1.06L0.20 1.06L0.75-3.35Q5.56-2.76 9.23-2.76L9.23-2.76L9.74-2.76Q12.22-2.76 13.66-3.23Q15.10-3.71 15.73-4.61Q16.36-5.52 16.52-6.94L16.52-6.94Q16.60-7.65 16.60-7.92L16.60-7.92Q16.60-9.30 15.97-10.01Q15.34-10.72 14.09-11.02Q12.85-11.31 10.37-11.63L10.37-11.63Q7.53-11.95 5.87-12.62Q4.22-13.29 3.41-14.57Q2.60-15.85 2.60-18.02L2.60-18.02Q2.60-18.88 2.72-19.95L2.72-19.95Q3.23-24.40 5.72-26.30Q8.20-28.19 13.33-28.19L13.33-28.19L16.09-28.19Q19.08-28.19 22.71-28.11L22.71-28.11L22.20-23.77Q20.11-23.77 19.00-23.81L19.00-23.81L15.57-23.85L12.81-23.85Q9.93-23.85 8.61-22.85Q7.29-21.84 7.29-19.04L7.29-19.04Q7.29-17.82 7.77-17.21Q8.24-16.60 9.07-16.36Q9.90-16.12 11.75-15.85L11.75-15.85Q12.10-15.81 13.17-15.65L13.17-15.65Q16.09-15.22 17.82-14.51Q19.55-13.80 20.42-12.48Q21.29-11.16 21.29-8.91L21.29-8.91Q21.29-8.08 21.17-7.14L21.17-7.14Q20.78-3.86 19.46-1.97Q18.14-0.08 15.65 0.75Q13.17 1.58 9.23 1.58L9.23 1.58ZM28.15-28.19L40.37-28.19Q45.57-28.15 48.02-25.92Q50.46-23.69 50.46-18.92L50.46-18.92Q50.46-17.70 50.27-15.93L50.27-15.93L49.67-10.84Q48.81-4.42 45.73-1.52Q42.66 1.38 36.70 1.42L36.70 1.42L24.52 1.42L28.15-28.19ZM29.69-2.92L37.30-2.92Q40.88-2.92 42.66-4.73Q44.43-6.54 44.94-10.61L44.94-10.61L45.65-16.16Q45.81-17.74 45.81-18.37L45.81-18.37Q45.81-21.25 44.45-22.55Q43.09-23.85 39.98-23.85L39.98-23.85L32.29-23.85L29.69-2.92ZM53.30 1.42L56.93-28.19L61.58-28.19L60.00-15.34L73.17-28.19L79.64-28.19L64.18-13.60L77.15 1.42L70.77 1.42L59.57-11.91L57.95 1.42L53.30 1.42Z"
                                      transform="translate(-0.19712032910524513, 28.345903325334252)"></path>
                            </g>
                        </g>
                    </g>
                </g>
            </g>
        </g> <!----> <!----> <!----> <!----> <!---->
     <g data-gra="path-slogan" fill-rule="" class="tp-slogan" fill="#07c160"
        transform="translate(5,45.93000030517578)">
            <rect x="0" height="1" y="4.96999979019165" width="28.31500244140625"></rect>
         <rect height="1" y="4.96999979019165" width="28.31500244140625" x="214.2050018310547"></rect>
         <g transform="translate(31.31500244140625,0)">
                <g transform="scale(1)">
                    <path d="M4.36 1.87L7.01-4.49L7.01-5.75L4.54-5.75L4.54-6.94L7.01-6.94L7.01-9.07L8.92-9.07L8.92-6.94L13.87-6.94L13.44-5.75L8.92-5.75L8.92-4.20L6.37 1.87L4.36 1.87ZM0.53-4.52L2.41-9.07L4.27-9.07L2.84-5.62L3.80-5.62L3.80 1.87L1.90 1.87L1.90-4.52L0.53-4.52ZM9.42 0.96L9.42-5.04L11.33-5.04L11.33 0.68L13.87 0.68L13.44 1.87L10.32 1.87Q9.95 1.87 9.68 1.60Q9.42 1.33 9.42 0.96L9.42 0.96ZM9.90-8.83L11.76-8.83L12.52-7.34L10.66-7.34L9.90-8.83ZM15.12 1.87L16.20-3.31L14.93-3.31L15.47-7.15L17.33-7.15L16.97-4.50L18.28-4.50L18.28-7.62L15.01-7.62L15.01-8.81L20.86-8.81L20.42-7.62L20.15-7.62L20.15-4.50L20.86-4.50L20.42-3.31L20.15-3.31L20.15 0.53L19.78 1.87L17.90 1.87L18.28 0.53L18.28-3.31L18.06-3.31L16.98 1.87L15.12 1.87ZM20.41-5.82L21.36-9.07L23.27-9.07L22.84-7.58L24.24-7.58L23.86-9.07L25.76-9.07L26.16-7.58L28.31-7.58L27.88-6.40L26.17-6.40L26.17-4.82L28.04-4.82L27.61-3.64L26.17-3.64L26.17-2.12L28.04-2.12L27.61-0.94L26.17-0.94L26.17 0.68L28.31 0.68L27.88 1.87L21.90 1.87Q21.53 1.87 21.26 1.60Q21 1.33 21 0.96L21 0.96L21-5.82L20.41-5.82ZM22.86 0.68L24.30 0.68L24.30-0.94L22.86-0.94L22.86 0.68ZM22.86-2.12L24.30-2.12L24.30-3.64L22.86-3.64L22.86-2.12ZM22.86-4.82L24.30-4.82L24.30-6.40L22.86-6.40L22.86-4.82ZM29.51 1.87L29.51-8.05L31.04-8.05L31.34-9.07L33.26-9.07L32.96-8.05L35.46-8.05L35.46 0.96Q35.46 1.33 35.20 1.60Q34.93 1.87 34.56 1.87L34.56 1.87L29.51 1.87ZM31.42 0.68L33.56 0.68L33.56-2.82L31.42-2.82L31.42 0.68ZM31.42-4.01L33.56-4.01L33.56-6.86L31.42-6.86L31.42-4.01ZM35.81-6.86L36.55-9.07L38.52-9.07L38.18-8.05L42.53-8.05L42.53-0.47L41.64 1.87L39.60 1.87L40.60-0.73L40.60-6.86L35.81-6.86ZM36.64-5.76L38.42-5.76L39.47-0.17L37.67-0.17L36.64-5.76ZM55.02-4.86L53.51-7.67L47.29-7.67L45.78-4.86L43.73-4.86L45.89-8.86L54.91-8.86L57.07-4.86L55.02-4.86ZM43.73 1.73L43.73 0.55L46.04 0.55L46.04-4.81L47.98-4.81L47.98 0.55L49.85 0.55L49.85-6.44L51.77-6.44L51.77-3.77L55.61-3.77L55.18-2.58L51.77-2.58L51.77 0.55L57.12 0.55L56.69 1.73L43.73 1.73ZM68.08-0.66L69.08-7.57L70.94-7.57L69.94-0.66L68.08-0.66ZM58.21 1.73L58.21 0.55L62.28 0.55L62.28-9.07L64.20-9.07L64.20 0.55L65.40 0.55L65.40-9.07L67.32-9.07L67.32 0.55L71.47 0.55L71.04 1.73L58.21 1.73ZM58.66-7.57L60.52-7.57L61.52-0.66L59.66-0.66L58.66-7.57ZM81.13 1.87L82.45-1.69L81.31-4.78L82.99-4.78L83.29-3.96L83.59-4.78L83.59-6.40L81.34-6.40L81.79-9.07L83.63-9.07L83.38-7.58L85.98-7.58L85.55-6.40L85.27-6.40L85.27-4.78L84.13-1.69L85.44 1.87L83.76 1.87L83.29 0.59L82.81 1.87L81.13 1.87ZM72.55-3.34L73.60-5.75L72.55-5.75L73.98-9.07L75.79-9.07L74.75-6.65L75.79-6.65L74.77-4.28L75.32-4.28L75.32 1.87L73.51 1.87L73.51-3.34L72.55-3.34ZM75.68 1.87L76.16 0.08L76.16-3.13L80.77-3.13L80.77-0.01L81.34-0.14L81.34 1.04L78.96 1.60L78.96-1.94L77.98-1.94L77.98 0.08L77.50 1.87L75.68 1.87ZM75.83-3.71L75.83-4.90L81.34-4.90L80.90-3.71L75.83-3.71ZM75.95-5.45L75.95-8.80L77.47-8.80L77.47-6.64L77.76-6.64L77.76-9.07L79.26-9.07L79.26-6.64L79.55-6.64L79.55-8.80L81.06-8.80L81.06-6.36Q81.06-5.98 80.80-5.71Q80.53-5.45 80.16-5.45L80.16-5.45L75.95-5.45ZM91.28 1.87L91.28-2.46L99.48-2.46L99.48 0.96Q99.48 1.34 99.24 1.61Q99 1.87 98.63 1.87L98.63 1.87L91.28 1.87ZM86.93-4.52L88.70-9.07L90.56-9.07L89.22-5.62L89.92-5.62L89.92 1.87L88.00 1.87L88.00-4.52L86.93-4.52ZM90.85-7.10L90.85-8.29L94.27-8.29L94.08-9.07L96.02-9.07L96.22-8.29L100.10-8.29L99.71-7.10L90.85-7.10ZM91.36-3.28L91.36-4.46L99.41-4.46L99.01-3.28L91.36-3.28ZM91.36-5.18L91.36-6.37L99.41-6.37L99.01-5.18L91.36-5.18ZM93.22 0.68L97.56 0.68L97.56-1.28L93.22-1.28L93.22 0.68ZM101.52 1.87L101.52 0.68L104.12 0.68L104.12-8.53L106.00-8.53L106.00 0.96Q106.00 1.34 105.73 1.61Q105.47 1.87 105.08 1.87L105.08 1.87L101.52 1.87ZM116.51 1.87L115.40-0.80L110.48-0.80L109.38 1.87L107.44 1.87L111.71-8.53L114.18-8.53L118.45 1.87L116.51 1.87ZM110.96-1.99L114.92-1.99L112.94-6.80L110.96-1.99ZM120.98 1.87L117.25-8.53L119.22-8.53L122.33 0.11L125.44-8.53L127.40-8.53L123.67 1.87L120.98 1.87ZM135.28 1.87L134.17-0.80L129.25-0.80L128.15 1.87L126.20 1.87L130.48-8.53L132.95-8.53L137.22 1.87L135.28 1.87ZM129.73-1.99L133.69-1.99L131.71-6.80L129.73-1.99ZM139.50 1.87L141.20-2.54L141.20-2.93L138.47-2.93L138.47-4.12L141.20-4.12L141.20-7.67L139.27-7.67L139.27-8.86L151.25-8.86L150.82-7.67L148.99-7.67L148.99-4.12L151.81-4.12L151.38-2.93L148.99-2.93L148.99 1.87L147.05 1.87L147.05-2.93L143.15-2.93L143.15-2.27L141.55 1.87L139.50 1.87ZM143.15-4.12L147.05-4.12L147.05-7.67L143.15-7.67L143.15-4.12ZM152.90 1.87L155.77-6.34L152.94-6.34L153.82-9.07L155.74-9.07L155.24-7.52L156.18-7.52L156.72-9.07L158.64-9.07L158.10-7.52L162.74-7.52L162.28-9.07L164.20-9.07L164.66-7.52L166.21-7.52L165.78-6.34L157.68-6.34L157.27-5.16L164.88-5.16L164.88-2.45L161.94-0.56L165.72 1.87L162.80 1.87L160.49 0.38L158.17 1.87L155.17 1.87L158.99-0.59L156.29-2.33L154.82 1.87L152.90 1.87ZM156.41-2.66L158.68-2.66L160.45-1.52L163.01-3.17L163.01-3.97L156.86-3.97L156.41-2.66ZM169.33 1.79Q168.96 1.79 168.69 1.52Q168.42 1.26 168.42 0.88L168.42 0.88L168.42-5.89L176.69-5.89L176.69-1.99Q176.69-1.61 176.42-1.34Q176.16-1.08 175.79-1.08L175.79-1.08L170.34-1.08L170.34 0.60L180.42 0.60L179.99 1.79L169.33 1.79ZM167.52-7.09L168.05-9.07L170.08-9.07L169.86-8.28L180.28-8.28L180.28-2.69L179.21-0.50L177.25-0.50L178.38-2.81L178.38-7.09L167.52-7.09ZM170.34-2.27L174.78-2.27L174.78-4.70L170.34-4.70L170.34-2.27Z"
                          transform="translate(-0.528, 9.072000000000001)"></path>
                </g>
            </g>
        </g>
    </g>
    <mask id="3b59149d-1a9b-4058-a75e-81f75abc5b77">
        <g fill="white">
            <rect data-gra="graph-name-bg" stroke-width="2" class="i-icon-bg" x="0" y="0" width="89.44000244140625"
                  height="39.93000030517578"></rect>
        </g>
        <g transform="translate(5,5)" fill="black">
            <g data-gra="path-name-1">
                <g transform="scale(1)">
                    <path d="M9.23 1.58L8.71 1.58Q3.55 1.58 0.20 1.06L0.20 1.06L0.75-3.35Q5.56-2.76 9.23-2.76L9.23-2.76L9.74-2.76Q12.22-2.76 13.66-3.23Q15.10-3.71 15.73-4.61Q16.36-5.52 16.52-6.94L16.52-6.94Q16.60-7.65 16.60-7.92L16.60-7.92Q16.60-9.30 15.97-10.01Q15.34-10.72 14.09-11.02Q12.85-11.31 10.37-11.63L10.37-11.63Q7.53-11.95 5.87-12.62Q4.22-13.29 3.41-14.57Q2.60-15.85 2.60-18.02L2.60-18.02Q2.60-18.88 2.72-19.95L2.72-19.95Q3.23-24.40 5.72-26.30Q8.20-28.19 13.33-28.19L13.33-28.19L16.09-28.19Q19.08-28.19 22.71-28.11L22.71-28.11L22.20-23.77Q20.11-23.77 19.00-23.81L19.00-23.81L15.57-23.85L12.81-23.85Q9.93-23.85 8.61-22.85Q7.29-21.84 7.29-19.04L7.29-19.04Q7.29-17.82 7.77-17.21Q8.24-16.60 9.07-16.36Q9.90-16.12 11.75-15.85L11.75-15.85Q12.10-15.81 13.17-15.65L13.17-15.65Q16.09-15.22 17.82-14.51Q19.55-13.80 20.42-12.48Q21.29-11.16 21.29-8.91L21.29-8.91Q21.29-8.08 21.17-7.14L21.17-7.14Q20.78-3.86 19.46-1.97Q18.14-0.08 15.65 0.75Q13.17 1.58 9.23 1.58L9.23 1.58ZM28.15-28.19L40.37-28.19Q45.57-28.15 48.02-25.92Q50.46-23.69 50.46-18.92L50.46-18.92Q50.46-17.70 50.27-15.93L50.27-15.93L49.67-10.84Q48.81-4.42 45.73-1.52Q42.66 1.38 36.70 1.42L36.70 1.42L24.52 1.42L28.15-28.19ZM29.69-2.92L37.30-2.92Q40.88-2.92 42.66-4.73Q44.43-6.54 44.94-10.61L44.94-10.61L45.65-16.16Q45.81-17.74 45.81-18.37L45.81-18.37Q45.81-21.25 44.45-22.55Q43.09-23.85 39.98-23.85L39.98-23.85L32.29-23.85L29.69-2.92ZM53.30 1.42L56.93-28.19L61.58-28.19L60.00-15.34L73.17-28.19L79.64-28.19L64.18-13.60L77.15 1.42L70.77 1.42L59.57-11.91L57.95 1.42L53.30 1.42Z"
                          transform="translate(-0.19712032910524513, 28.345903325334252)"></path>
                </g>
            </g>
        </g>
    </mask>
</svg>